<svg xmlns="http://www.w3.org/2000/svg" width="800" height="800" viewBox="0 0 24 24" fill="#cb3cff" xmlns:v="https://vecta.io/nano"><path fill-rule="evenodd" d="M5 3h14L8.816 13.184c-.16-.415-.416-.772-.778-1.087-.228-.198-.546-.377-1.182-.735l-2.913-1.64c-.949-.534-1.423-.801-1.682-1.231S2 7.542 2 6.504v-.69c0-1.327 0-1.99.439-2.402S3.586 3 5 3z"/><path opacity=".5" d="M22 6.504v-.69c0-1.327 0-1.99-.439-2.402S20.414 3 19 3L8.815 13.184a2.85 2.85 0 0 1 .121.403c.064.285.064.619.064 1.286v2.67c0 .91 0 1.364.252 1.719s.699.529 1.594.879c1.879.734 2.818 1.102 3.486.684S15 19.452 15 17.542v-2.67c0-.667 0-1.001.064-1.286a2.68 2.68 0 0 1 .899-1.49c.228-.198.546-.377 1.182-.735l2.913-1.64c.948-.534 1.423-.801 1.682-1.231s.26-.949.26-1.987z"/></svg>