<svg xmlns="http://www.w3.org/2000/svg" width="800" height="800" viewBox="0 0 24 24" fill="#000" fill-rule="evenodd" xmlns:v="https://vecta.io/nano"><path d="M4.414 17.859a.75.75 0 0 1 1.026.27c.827 1.418 2.091 2.49 3.65 3.186a.75.75 0 1 1-.611 1.37c-1.812-.808-3.331-2.08-4.334-3.8a.75.75 0 0 1 .27-1.026zM18.906 3.922a3.86 3.86 0 0 0-3.875-1.015.75.75 0 1 1-.411-1.443 5.36 5.36 0 0 1 5.358 1.408.75.75 0 0 1-1.072 1.049zm-7.716-.614c-.214-.367-.838-.59-1.472-.228s-.742.997-.532 1.358l2.526 4.331a.75.75 0 0 1-1.296.756L7.049 3.75c-.214-.367-.838-.59-1.472-.228s-.742.997-.532 1.358l3.788 6.497a.75.75 0 0 1-1.296.756L5.854 9.245c-.214-.367-.838-.59-1.472-.228s-.742.997-.532 1.358l3.788 6.497c1.609 2.759 5.579 3.654 8.946 1.73s4.561-5.764 2.956-8.517l-2.526-4.331c-.214-.367-.838-.59-1.472-.228s-.742.997-.532 1.358l1.684 2.887a.75.75 0 0 1-.276 1.029c-1.542.882-2.015 2.586-1.34 3.744a.75.75 0 1 1-1.296.756c-.913-1.565-.544-3.45.635-4.782.33-.372.442-.914.192-1.344L11.19 3.308z"/></svg>