<svg xmlns="http://www.w3.org/2000/svg" width="800" height="800" viewBox="0 0 24 24" fill="none" stroke="#14ca74" stroke-width="1.5" xmlns:v="https://vecta.io/nano"><path d="M21.067 5c.592.958.933 2.086.933 3.293 0 3.476-2.829 6.293-6.319 6.293-.637 0-2.087-.146-2.792-.732l-.882.878c-.735.732-.147.732.147 1.317 0 0 .735 1.024 0 2.049-.441.585-1.675 1.405-3.086 0l-.294.293s.882 1.024.147 2.049c-.441.586-1.617 1.171-2.645.146l-1.029 1.025c-.705.702-1.568.293-1.91 0l-.882-.878c-.823-.82-.343-1.707 0-2.049l7.642-7.611s-.735-1.171-.735-2.781C9.362 4.818 12.191 2 15.681 2c.819 0 1.601.155 2.319.437" stroke-linecap="round" stroke-linejoin="round"/><path d="M17.885 8.294a2.2 2.2 0 1 1-4.409 0 2.2 2.2 0 1 1 4.409 0z"/></svg>