<svg xmlns="http://www.w3.org/2000/svg" width="15" height="14" fill="#cb3cff" xmlns:v="https://vecta.io/nano"><path d="M4.336 6.48c.51 0 .977-.237 1.355-.601-.397-.711-.623-1.515-.623-2.287a3.99 3.99 0 0 1 .436-1.817 2.25 2.25 0 0 0-1.18-.335c-1.263 0-2.287 1.039-2.287 2.32s1.036 2.72 2.299 2.72zm1.538 1.1a3.28 3.28 0 0 0-.692-.075H3.481c-1.81 0-3.277 1.472-3.277 3.288l.008.389a.92.92 0 0 0 .916.919h1.677a5.18 5.18 0 0 1 3.07-4.521zm3.142-.615c1.566 0 2.822-1.784 2.822-3.373S10.568.715 9.002.715 6.166 2.003 6.166 3.592s1.284 3.373 2.85 3.373zm5.114 5.349a4.07 4.07 0 0 0-4.064-4.077H7.957c-2.244 0-4.064 1.825-4.064 4.077l.01.482c0 .629.508 1.139 1.136 1.139h7.966a1.14 1.14 0 0 0 1.136-1.139l-.01-.482z"/></svg>