<svg xmlns="http://www.w3.org/2000/svg" height="800" width="800" viewBox="0 0 512 512" fill="#fff" xmlns:v="https://vecta.io/nano"><path d="M55.13 261.431c4.61-4.717 9.607-9.049 14.931-12.963C54.27 232.775 44.49 211.051 44.49 187.03c0-47.838 38.788-86.626 86.634-86.626 32.808 0 61.349 18.246 76.05 45.147 11.372-7.762 23.874-13.947 37.213-18.296l.64-1.788a4.79 4.79 0 0 0-.353-4.003c-.706-1.215-1.911-2.068-3.29-2.314l-32.66-5.866c-1.961-.353-3.503-1.887-3.856-3.855l-5.866-32.66c-.246-1.378-1.091-2.592-2.314-3.29a4.73 4.73 0 0 0-4.004-.361L161.46 84.332a4.75 4.75 0 0 1-5.258-1.402l-21.437-25.326a4.77 4.77 0 0 0-3.643-1.69c-1.411 0-2.74.616-3.651 1.69L106.036 82.93c-1.288 1.526-3.388 2.084-5.268 1.419L69.553 73.127c-1.321-.476-2.789-.346-4.012.353-1.215.705-2.051 1.911-2.306 3.29l-5.865 32.66c-.362 1.968-1.896 3.502-3.856 3.855l-32.66 5.858c-1.386.254-2.584 1.1-3.29 2.314-.706 1.222-.836 2.682-.36 4.011l11.223 31.224c.673 1.879.115 3.971-1.411 5.267L1.69 183.387a4.77 4.77 0 0 0 0 7.293l25.325 21.437a4.78 4.78 0 0 1 1.411 5.266L17.203 248.6c-.476 1.329-.345 2.789.36 4.012.706 1.214 1.904 2.05 3.29 2.305l32.66 5.858c.592.107 1.125.353 1.617.656zm428.493 29.264c-14.767-14.784-34.416-24.743-56.246-27.508-1.904-34.17-16.4-65.074-39.1-87.749-24.35-24.374-58.126-39.486-95.306-39.477-34.826-.008-66.682 13.257-90.571 34.965-20.551 18.647-35.277 43.636-41.233 71.841-5.776-.959-11.691-1.501-17.729-1.501-29.624-.008-56.549 12.035-75.952 31.462-19.418 19.394-31.462 46.328-31.462 75.944 0 29.624 12.044 56.558 31.462 75.952 19.403 19.418 46.328 31.462 75.952 31.462H415.12c26.72 0 51.012-10.862 68.503-28.377 17.515-17.491 28.386-41.791 28.377-68.503.008-26.712-10.862-51.021-28.377-68.511zm-17.869 119.137c-13.003 12.979-30.822 20.969-50.634 20.978H143.438c-22.717-.008-43.177-9.172-58.076-24.062-14.89-14.899-24.054-35.352-24.062-58.076.008-22.717 9.172-43.178 24.062-58.076 14.899-14.882 35.359-24.054 58.076-24.063 8.483 0 16.621 1.28 24.292 3.66l14.734 4.553 1.575-15.342c2.823-27.566 15.884-52.087 35.343-69.766 19.484-17.663 45.22-28.402 73.589-28.402 30.272 0 57.575 12.232 77.437 32.078 19.846 19.854 32.07 47.156 32.078 77.437 0 1.066-.041 2.314-.099 3.774l-.484 13.594 13.422-.518c19.73.066 37.475 8.04 50.43 20.97 12.978 13.004 20.961 30.822 20.978 50.635-.018 19.813-8 37.632-20.979 50.626z"/></svg>